<svg id="visual" viewBox="0 0 450 900" width="450" height="900" xmlns="http://www.w3.org/2000/svg" xmlns:xlink="http://www.w3.org/1999/xlink" version="1.1"><path d="M0 677L41 677L41 666L82 666L82 730L123 730L123 784L164 784L164 648L205 648L205 739L245 739L245 683L286 683L286 709L327 709L327 725L368 725L368 671L409 671L409 722L450 722L450 694L450 0L450 0L409 0L409 0L368 0L368 0L327 0L327 0L286 0L286 0L245 0L245 0L205 0L205 0L164 0L164 0L123 0L123 0L82 0L82 0L41 0L41 0L0 0Z" fill="#2a2a2e"></path><path d="M0 547L41 547L41 626L82 626L82 644L123 644L123 520L164 520L164 601L205 601L205 611L245 611L245 559L286 559L286 551L327 551L327 542L368 542L368 569L409 569L409 551L450 551L450 577L450 0L450 0L409 0L409 0L368 0L368 0L327 0L327 0L286 0L286 0L245 0L245 0L205 0L205 0L164 0L164 0L123 0L123 0L82 0L82 0L41 0L41 0L0 0Z" fill="#3d4458"></path><path d="M0 440L41 440L41 459L82 459L82 431L123 431L123 389L164 389L164 414L205 414L205 390L245 390L245 455L286 455L286 370L327 370L327 412L368 412L368 497L409 497L409 469L450 469L450 490L450 0L450 0L409 0L409 0L368 0L368 0L327 0L327 0L286 0L286 0L245 0L245 0L205 0L205 0L164 0L164 0L123 0L123 0L82 0L82 0L41 0L41 0L0 0Z" fill="#476187"></path><path d="M0 330L41 330L41 260L82 260L82 351L123 351L123 241L164 241L164 311L205 311L205 300L245 300L245 296L286 296L286 243L327 243L327 310L368 310L368 334L409 334L409 246L450 246L450 284L450 0L450 0L409 0L409 0L368 0L368 0L327 0L327 0L286 0L286 0L245 0L245 0L205 0L205 0L164 0L164 0L123 0L123 0L82 0L82 0L41 0L41 0L0 0Z" fill="#4282b8"></path><path d="M0 130L41 130L41 192L82 192L82 209L123 209L123 152L164 152L164 196L205 196L205 153L245 153L245 197L286 197L286 124L327 124L327 194L368 194L368 149L409 149L409 157L450 157L450 141L450 0L450 0L409 0L409 0L368 0L368 0L327 0L327 0L286 0L286 0L245 0L245 0L205 0L205 0L164 0L164 0L123 0L123 0L82 0L82 0L41 0L41 0L0 0Z" fill="#0ea5e9"></path></svg>